name analog
datacolumns 19
datarows 32
range 0.0 0.0155
endheader
time	ground_force_vx	ground_force_vy	ground_force_vz	ground_force_px	ground_force_py	ground_force_pz	l_ground_force_vx	l_ground_force_vy	l_ground_force_vz	l_ground_force_px	l_ground_force_py	l_ground_force_pz	ground_torque_x	ground_torque_y	ground_torque_z	l_ground_torque_x	l_ground_torque_y	l_ground_torque_z
0.0	-0.0	-0.0	-0.0	0.1360655426979065	10.06723976135254	-130.84425354003906	1.685504913330078	-16.93033790588379	-368.7956237792969	-0.0	-0.0	-0.0	-0.0	-0.0	-0.0	108740.40625	11692.5458984375	-679.0357055664062
0.0005	-0.0	-0.0	-0.0	0.0383205264806747	9.95927619934082	-131.06292724609375	1.6894923448562622	-16.8654727935791	-366.7004089355469	-0.0	-0.0	-0.0	-0.0	-0.0	-0.0	108471.265625	11912.189453125	-708.6032104492188
0.001	-0.0	-0.0	-0.0	-0.1784210205078125	10.222830772399902	-134.2083740234375	1.7936114072799685	-16.558469772338867	-365.72900390625	-0.0	-0.0	-0.0	-0.0	-0.0	-0.0	107842.2421875	11955.5830078125	-780.6810302734375
0.0015	-0.0	-0.0	-0.0	-0.4191617965698242	10.715180397033691	-134.48416137695312	1.7742156982421875	-16.581533432006836	-363.8296813964844	-0.0	-0.0	-0.0	-0.0	-0.0	-0.0	107147.7421875	11827.240234375	-722.5930786132812
0.002	-0.0	-0.0	-0.0	-0.3303384780883789	10.982803344726562	-137.0205078125	1.6656996011734009	-16.58160972595215	-362.2261657714844	-0.0	-0.0	-0.0	-0.0	-0.0	-0.0	107078.3984375	11906.8515625	-721.5867919921875
0.0025	-0.0	-0.0	-0.0	-0.5414292216300964	11.072142601013184	-138.99461364746094	1.9974360466003416	-16.33951187133789	-360.4259643554688	-0.0	-0.0	-0.0	-0.0	-0.0	-0.0	106144.15625	11851.4599609375	-639.0585327148438
0.003	-0.0	-0.0	-0.0	-0.8028945922851562	11.16427993774414	-141.71621704101562	1.7970426082611084	-16.231048583984375	-357.09228515625	-0.0	-0.0	-0.0	-0.0	-0.0	-0.0	105413.4140625	11781.3115234375	-663.0866088867188
0.0035	-0.0	-0.0	-0.0	-0.9813156127929688	11.54365348815918	-144.72300720214844	2.1062958240509038	-16.357511520385742	-355.1675720214844	-0.0	-0.0	-0.0	-0.0	-0.0	-0.0	105051.15625	11696.46484375	-587.5427856445312
0.004	-0.0	-0.0	-0.0	-0.6931028366088867	12.210865020751951	-147.89183044433594	2.040348052978516	-15.657636642456056	-354.648681640625	-0.0	-0.0	-0.0	-0.0	-0.0	-0.0	104614.4609375	11677.71875	-448.1898498535156
0.0045000000000000005	-0.0	-0.0	-0.0	-0.5600475072860718	12.411904335021973	-149.5756378173828	2.017721652984619	-15.72126007080078	-353.594482421875	-0.0	-0.0	-0.0	-0.0	-0.0	-0.0	103926.3359375	11835.830078125	-713.8948364257812
0.005	-0.0	-0.0	-0.0	-0.80460125207901	12.768356323242188	-152.22731018066406	2.327519655227661	-15.501211166381836	-350.2878723144531	-0.0	-0.0	-0.0	-0.0	-0.0	-0.0	103285.171875	11938.880859375	-572.9340209960938
0.0055	-0.0	-0.0	-0.0	-0.5367305874824524	12.348226547241213	-153.11221313476562	2.0840635299682617	-14.948763847351074	-348.1927185058594	-0.0	-0.0	-0.0	-0.0	-0.0	-0.0	102723.90625	11865.9521484375	-610.6416625976562
0.006	-0.0	-0.0	-0.0	-1.0716838836669922	12.94647979736328	-156.10552978515625	1.8414777517318728	-14.905010223388672	-346.00927734375	-0.0	-0.0	-0.0	-0.0	-0.0	-0.0	102059.828125	11954.5673828125	-707.240966796875
0.006500000000000001	-0.0	-0.0	-0.0	-0.7362066507339478	13.501937866210938	-159.6373291015625	1.8405749797821045	-15.191329956054688	-344.5246887207031	-0.0	-0.0	-0.0	-0.0	-0.0	-0.0	101381.734375	11736.244140625	-662.632568359375
0.007	-0.0	-0.0	-0.0	-1.158561110496521	14.28329372406006	-162.63819885253906	1.3974987268447876	-14.506534576416016	-339.98760986328125	-0.0	-0.0	-0.0	-0.0	-0.0	-0.0	100845.3046875	11754.78125	-699.8634033203125
0.0075	-0.0	-0.0	-0.0	-0.7357383966445923	14.43945598602295	-163.61093139648438	1.3528770208358765	-14.396434783935549	-339.37481689453125	-0.0	-0.0	-0.0	-0.0	-0.0	-0.0	100195.3046875	11868.1943359375	-751.7240600585938
0.008	-0.0	-0.0	-0.0	-0.8921051025390625	14.907266616821287	-165.3773193359375	1.6410181522369385	-14.17549991607666	-337.28082275390625	-0.0	-0.0	-0.0	-0.0	-0.0	-0.0	99554.28125	11723.5693359375	-684.6478881835938
0.0085	-0.0	-0.0	-0.0	-0.4905489683151245	15.976570129394531	-168.02642822265625	1.2861086130142212	-13.999183654785156	-334.6610412597656	-0.0	-0.0	-0.0	-0.0	-0.0	-0.0	98932.265625	11863.474609375	-729.211669921875
0.009000000000000001	-0.0	-0.0	-0.0	-0.8028945922851562	15.776081085205078	-169.9653778076172	1.3093256950378418	-13.91100025177002	-332.5682678222656	-0.0	-0.0	-0.0	-0.0	-0.0	-0.0	98348.2890625	11776.884765625	-810.8909912109375
0.0095	-0.0	-0.0	-0.0	-0.7586569786071777	16.666650772094727	-171.6425323486328	0.9529581665992736	-13.800036430358888	-330.1174621582031	-0.0	-0.0	-0.0	-0.0	-0.0	-0.0	97845.03125	12018.6689453125	-811.40087890625
0.01	-0.0	-0.0	-0.0	-0.9372328519821168	16.956798553466797	-173.5858612060547	0.9101993441581726	-14.022583961486816	-327.4994506835937	-0.0	-0.0	-0.0	-0.0	-0.0	-0.0	97227.859375	11840.4755859375	-826.1934204101562
0.0105	-0.0	-0.0	-0.0	-0.4886728823184967	17.289976119995117	-174.37342834472656	1.2652500867843628	-13.95631504058838	-326.9775390625	-0.0	-0.0	-0.0	-0.0	-0.0	-0.0	96976.984375	11787.4599609375	-736.9550170898438
0.011	-0.0	-0.0	-0.0	-0.9845473170280457	17.488208770751953	-175.0038604736328	0.9758186340332032	-13.579903602600098	-325.14569091796875	-0.0	-0.0	-0.0	-0.0	-0.0	-0.0	96426.7890625	11873.0849609375	-773.423095703125
0.0115	-0.0	-0.0	-0.0	-0.6244735717773438	18.09347152709961	-177.29632568359375	1.2852855920791626	-14.021575927734377	-324.1913146972656	-0.0	-0.0	-0.0	-0.0	-0.0	-0.0	96003.0625	11875.7890625	-691.4829711914062
0.012	-0.0	-0.0	-0.0	-0.781119704246521	18.382617950439453	-178.5449981689453	0.9735400676727296	-13.711374282836914	-322.8802185058594	-0.0	-0.0	-0.0	-0.0	-0.0	-0.0	95806.2265625	11960.4697265625	-788.5064086914062
0.0125	-0.0	-0.0	-0.0	-0.6847242116928101	18.20427894592285	-178.8904266357422	1.024053931236267	-14.043148040771484	-321.1347351074219	-0.0	-0.0	-0.0	-0.0	-0.0	-0.0	95213.3203125	11813.2998046875	-774.1036376953125
0.013000000000000001	-0.0	-0.0	-0.0	-0.8461502194404602	18.628253936767575	-180.2930145263672	1.244814395904541	-13.644274711608888	-319.46246337890625	-0.0	-0.0	-0.0	-0.0	-0.0	-0.0	94794.171875	12061.208984375	-707.3406372070312
0.0135	-0.0	-0.0	-0.0	-0.8430911302566528	18.89564514160156	-180.3779296875	0.8871078491210938	-13.951738357543944	-318.24560546875	-0.0	-0.0	-0.0	-0.0	-0.0	-0.0	94414.3828125	11880.6767578125	-678.029052734375
0.014	-0.0	-0.0	-0.0	-0.6062321066856384	18.760326385498047	-182.6791076660156	1.309336543083191	-14.438898086547852	-316.2474365234375	-0.0	-0.0	-0.0	-0.0	-0.0	-0.0	93843.4375	12136.2060546875	-676.7379760742188
0.0145	-0.0	-0.0	-0.0	-0.6065797805786133	19.05250358581543	-183.85110473632807	1.018330693244934	-13.979660034179688	-315.4657287597656	-0.0	-0.0	-0.0	-0.0	-0.0	-0.0	93389.75	12022.345703125	-610.322998046875
0.015	-0.0	-0.0	-0.0	-0.7601994276046753	19.15921974182129	-182.04156494140625	1.2419509887695312	-13.879673957824709	-314.4031982421875	-0.0	-0.0	-0.0	-0.0	-0.0	-0.0	93087.9765625	11913.2138671875	-751.3265991210938
0.0155	-0.0	-0.0	-0.0	-0.6883235573768616	19.595571517944336	-185.35134887695312	0.9082271456718444	-14.354381561279297	-313.0892028808594	-0.0	-0.0	-0.0	-0.0	-0.0	-0.0	92814.8359375	11836.2119140625	-671.1488647460938
